<?xml version="1.0" encoding="iso-8859-1"?>
<!-- Generator: Adobe Illustrator 19.0.0, SVG Export Plug-In . SVG Version: 6.00 Build 0)  -->
<svg version="1.1" id="Capa_1" xmlns="http://www.w3.org/2000/svg" xmlns:xlink="http://www.w3.org/1999/xlink" x="0px" y="0px"
	 viewBox="0 0 512 512" style="enable-background:new 0 0 512 512;" xml:space="preserve">
<g>
	<g>
		<path d="M163.704,385.898c-4.142,0-7.5,3.358-7.5,7.5v16.695c0,4.142,3.358,7.5,7.5,7.5s7.5-3.358,7.5-7.5v-16.695
			C171.204,389.256,167.846,385.898,163.704,385.898z"/>
	</g>
</g>
<g>
	<g>
		<path d="M348.205,385.898c-4.142,0-7.5,3.358-7.5,7.5v16.695c0,4.142,3.358,7.5,7.5,7.5s7.5-3.358,7.5-7.5v-16.695
			C355.705,389.256,352.347,385.898,348.205,385.898z"/>
	</g>
</g>
<g>
	<g>
		<path d="M283.659,403.285c-3.118-2.726-7.856-2.409-10.583,0.71c-4.172,4.773-10.414,7.51-17.122,7.51
			c-6.71,0-12.951-2.737-17.123-7.51c-2.726-3.119-7.464-3.438-10.583-0.71c-3.119,2.726-3.437,7.464-0.71,10.583
			c7.021,8.032,17.377,12.638,28.416,12.638c11.038,0,21.394-4.606,28.415-12.638C287.096,410.749,286.778,406.011,283.659,403.285z
			"/>
	</g>
</g>
<g>
	<g>
		<path d="M421.937,71.139c-0.622-12.709-11.973-23.866-24.402-24.112c-1.027-2.646-2.563-5.032-4.587-7.084
			c-4.332-4.392-10.712-6.911-17.504-6.911c-9.31,0-17.588,4.577-21.606,11.943c-2.907,5.332-4.742,13.984,1.356,26.162
			c-4.305,4.153-6.988,9.977-6.988,16.431c0,12.61,10.223,22.832,22.832,22.832c9.229,0,17.172-5.478,20.772-13.357
			c9.61-1.125,17.119-3.94,22.325-8.381C419.496,84.092,422.266,77.868,421.937,71.139z M383.282,52.056
			c-3.234,2.606-6.627,6.637-9.463,12.854c-0.912-0.111-1.839-0.175-2.782-0.175c-0.74,0-1.472,0.039-2.195,0.107
			c-2.715-5.289-3.408-9.803-1.836-12.686c2.697-4.945,11.458-5.54,15.263-1.681c0.444,0.45,0.804,0.957,1.081,1.524
			C383.327,52.018,383.305,52.037,383.282,52.056z M393.347,81.667l-0.438-0.664c-1.083-3.613-3.035-6.849-5.616-9.466
			c0.587-1.338,1.243-2.649,2.024-3.885c1.713-2.711,4.327-5.637,7.802-5.637c4.633-0.001,9.599,4.974,9.838,9.857
			C407.184,76.527,402.175,80.065,393.347,81.667z"/>
	</g>
</g>
<g>
	<g>
		<path d="M482.563,364.841c-3.637-2.228-7.528-4.357-11.665-6.4c13.217-25.626,15.182-48.228,5.813-67.268
			c-9.946-20.209-31.547-34.535-59.55-45.177c9.559-23.311,10.89-43.239,4.091-60.722c-12.658-32.551-51.036-48.291-84.897-62.179
			c-28.246-11.584-54.926-22.526-56.767-39.458c-0.236-2.174-1.41-4.136-3.212-5.374c-1.803-1.238-4.058-1.625-6.169-1.064
			c-1.233,0.328-30.562,8.221-62.83,25.71c-42.099,22.819-69.357,51.563-79.075,83.307c-6.572,3.509-22.463,12.763-36.72,27.058
			c-23.433,23.497-31.672,49.801-24.037,76.398c-7.489,5.806-22.985,18.862-37.315,37.505
			C4.074,361.207-5.369,397.526,2.918,432.208c6.58,27.531,31.189,46.759,59.846,46.759h387.341
			c28.385,0,51.713-17.69,59.431-45.068C517.208,406.681,506.621,379.575,482.563,364.841z M495.099,429.829
			c-4.439,15.748-18.886,34.138-44.993,34.138H62.765c-21.687,0-40.298-14.494-45.257-35.247
			c-7.276-30.451,0.923-61.433,24.371-92.085c11.817-15.449,24.769-26.958,32.299-33.062c0.042,0.047,0.091,0.091,0.133,0.138
			c7.969,8.878,19.805,12.381,30.903,15.507c0.017,0.005,0.034,0.01,0.051,0.014c42.101,11.267,86.296,11.666,129.522,14.51
			c46.905,3.085,95.408,6.276,139.718,13.265c3.674,0.579,7.469-1.928,8.407-5.522c1.104-4.231-1.774-8.616-6.089-9.296
			c-44.964-7.094-96.014-10.452-141.053-13.415c-40.441-2.66-78.639-5.173-106.876-9.909c-9.69-1.625-19.369-3.608-28.647-6.898
			c-6.409-2.273-14.302-5.102-16.864-12.08c-8.363-22.769-2.117-44.896,18.564-65.768c11.426-11.531,24.382-19.602,31.17-23.428
			c0.03,0.025,0.902,0.736,1.325,1.061c6.129,4.717,13.435,7.628,20.729,10.011c6.684,2.19,13.526,3.897,20.395,5.389
			c4.047,0.881,8.042-1.689,8.921-5.737c0.866-3.984-1.755-8.057-5.737-8.922c-0.801-0.174-1.584-0.348-2.353-0.522
			c-8.486-1.918-16.93-4.171-24.925-7.647c-3.967-1.757-6.656-3.42-8.462-4.914c18.531-57.555,99.046-87.546,123.79-95.519
			c7.975,20.158,35.218,31.332,63.86,43.08c31.07,12.743,66.285,27.185,76.609,53.737c5.41,13.914,4.008,30.436-4.305,50.36
			c-63.124-20.019-129.955-23.286-195.03-33.316c-4.093-0.631-7.924,2.177-8.555,6.271c-0.624,4.044,2.234,7.934,6.271,8.555
			c40.195,6.186,80.705,10.123,120.84,16.722c26.356,4.334,52.795,9.484,78.108,18.171c0.028,0.01,0.058,0.012,0.086,0.022
			c28.1,9.622,49.772,22.435,58.564,40.302c7.354,14.943,5.369,32.841-6.088,54.571c-5.683-2.259-11.459-4.292-17.297-6.11
			c-10.856-3.387-21.97-6.34-33.126-8.571c-4.061-0.867-8.188,1.599-9.07,5.733c-0.879,4.123,2.006,8.094,6.025,8.955
			c3.007,0.643,6.022,1.286,9.006,2.032c21.415,5.08,43.131,11.656,62.024,23.226C496.812,391.157,499.504,414.203,495.099,429.829z
			"/>
	</g>
</g>
<g>
	<g>
		<path d="M121.083,116.296c6.097-12.178,4.261-20.829,1.354-26.161c-7.441-13.646-28.352-15.939-39.11-5.034
			c-2.024,2.052-3.561,4.439-4.587,7.084c-12.43,0.247-23.779,11.405-24.401,24.112c-0.33,6.729,2.441,12.954,7.802,17.525
			c5.207,4.441,12.717,7.255,22.325,8.381c3.6,7.879,11.544,13.357,20.772,13.357c12.611,0,22.832-10.223,22.832-22.832
			C128.07,126.274,125.388,120.449,121.083,116.296z M83.367,126.162l-0.438,0.664c-8.829-1.601-13.838-5.139-13.61-9.794
			c0.239-4.883,5.205-9.859,9.839-9.859c2.861,0,5.222,2.095,6.846,4.251c0.726,0.964,1.354,1.997,1.923,3.061
			c0.367,0.689,0.717,1.435,1.057,2.21C86.403,119.312,84.451,122.548,83.367,126.162z M107.432,110.003
			c-0.723-0.07-1.454-0.108-2.195-0.108c-0.942,0-1.869,0.064-2.782,0.175c-2.828-6.199-6.21-10.225-9.437-12.832
			c-0.032-0.026-0.063-0.054-0.095-0.08c0.277-0.567,0.637-1.074,1.082-1.524c3.802-3.852,12.562-3.27,15.262,1.682
			C110.84,100.199,110.147,104.712,107.432,110.003z"/>
	</g>
</g>
<g>
</g>
<g>
</g>
<g>
</g>
<g>
</g>
<g>
</g>
<g>
</g>
<g>
</g>
<g>
</g>
<g>
</g>
<g>
</g>
<g>
</g>
<g>
</g>
<g>
</g>
<g>
</g>
<g>
</g>
</svg>
